# xmcd
#
# Track frame offsets:
#	150
#	16200
#	37571
#	62451
#	78076
#	99810
#	118198
#	144123
#	155769
#	168655
#	185891
#	204263
#	214128
#	235372
#	247514
#	264848
#
# Disc length: 3759 seconds
#
# Revision: 1
# Processed by: cddbd v1.5.2PL0 Copyright (c) Steve Scherf et al.
# Submitted via: audiograbber 1.83.01
#
DISCID=c00ead10
DTITLE=The Juke Joints - Let It Roll
DYEAR=2006
DGENRE=Blues
TTITLE0=Milion Miles From Nowhere
TTITLE1=Let It Roll
TTITLE2=Louella
TTITLE3=Double Talk
TTITLE4=Blues for the Soul
TTITLE5=Treat My Baby
TTITLE6=I'm In the Mood
TTITLE7=Marie Marie
TTITLE8=The Rumble
TTITLE9=You Got the Move
TTITLE10=99 Pounds
TTITLE11=Bullfrog Blues
TTITLE12=Steve's Last Ramble
TTITLE13=Out of the Blue
TTITLE14='k Gae Wee Naer Uus Toe
TTITLE15=Boogie At Midnight
EXTD=
EXTT0=
EXTT1=
EXTT2=
EXTT3=
EXTT4=
EXTT5=
EXTT6=
EXTT7=
EXTT8=
EXTT9=
EXTT10=
EXTT11=
EXTT12=
EXTT13=
EXTT14=
EXTT15=
PLAYORDER=
